PathFileType	4	(X/Y/Z)	 s01c0101.trc
DataRate	CameraRate	NumFrames	NumMarkers	Units	OrigDataRate	OrigDataStartFrame	OrigNumFrames
200	200	4	47	mm	200	751	2000
Frame#	Time	racr			lacr			c7			jug			rlel			rdr			llel			ldr			s2			lic			ric			lasi			rasi			rpsi			lpsi			rgt			lgt			rth1			rth2			rth3			rth4			rlfc			rsh1			rsh2			rsh3			rsh4			rlmal			rmmal			rcal			rtoe			rmt5			lth1			lth2			lth4			lth3			llfc			lsh1			lsh2			lsh3			lsh4			llmal			lcal			ltoe			lmt5			SBIKE			LBIKE			RBIKE			
		X1	Y1	Z1	X2	Y2	Z2	X3	Y3	Z3	X4	Y4	Z4	X5	Y5	Z5	X6	Y6	Z6	X7	Y7	Z7	X8	Y8	Z8	X9	Y9	Z9	X10	Y10	Z10	X11	Y11	Z11	X12	Y12	Z12	X13	Y13	Z13	X14	Y14	Z14	X15	Y15	Z15	X16	Y16	Z16	X17	Y17	Z17	X18	Y18	Z18	X19	Y19	Z19	X20	Y20	Z20	X21	Y21	Z21	X22	Y22	Z22	X23	Y23	Z23	X24	Y24	Z24	X25	Y25	Z25	X26	Y26	Z26	X27	Y27	Z27	X28	Y28	Z28	X29	Y29	Z29	X30	Y30	Z30	X31	Y31	Z31	X32	Y32	Z32	X33	Y33	Z33	X34	Y34	Z34	X35	Y35	Z35	X36	Y36	Z36	X37	Y37	Z37	X38	Y38	Z38	X39	Y39	Z39	X40	Y40	Z40	X41	Y41	Z41	X42	Y42	Z42	X43	Y43	Z43	X44	Y44	Z44	X45	Y45	Z45	X46	Y46	Z46	X47	Y47	Z47	
751	3.7550	485.706112	1348.703853	-123.322099	526.732497	1298.219708	-419.386362	450.067098	1397.038565	-281.826380	463.725028	1228.664966	-265.682309	540.242486	1080.128469	-11.574081	713.750774	874.691652	-58.293787	553.317552	1037.629587	-546.053354	718.037339	860.940776	-446.701100	-65.518312	1162.494917	-279.941414	102.602420	1160.027193	-452.053263	91.067987	1190.123212	-117.485349	107.523483	1107.167238	-421.460205	120.434739	1141.550231	-148.579635	-40.100588	1210.035983	-231.953409	-40.149696	1201.991610	-337.530998	49.785845	1084.163844	-83.397109	51.457350	1018.389892	-458.072197	163.904771	1006.600777	-65.511396	239.266619	972.429654	-68.112246	318.164652	928.779255	-77.385909	263.872269	1019.661452	-87.025951	396.289333	844.294414	-97.794237	359.812157	730.670068	-66.335634	342.079930	647.844075	-70.809663	314.876867	563.698107	-80.498083	387.201257	637.628486	-109.570384	269.818828	447.977815	-93.954211	306.752323	463.183042	-176.219788	222.676671	413.682271	-149.236260	493.234045	408.503895	-127.546685	389.854240	370.913750	-60.464236	123.826501	914.407032	-463.889826	194.639689	864.284973	-452.345921	226.630271	907.240555	-448.748048	258.132441	808.953112	-436.960136	315.133059	717.464044	-416.857452	231.044757	646.654949	-450.301628	177.949355	579.820665	-443.811807	119.572245	516.766790	-428.536587	218.845671	549.412484	-409.396094	35.368233	424.090588	-412.697249	-20.516333	421.446560	-368.357288	191.749779	240.552581	-373.704547	94.180482	285.225810	-439.474979	-223.506751	893.887853	-250.947940	-12.187465	84.084213	-453.762899	-20.241651	80.755089	-53.845326	
752	3.7600	486.123848	1348.594476	-122.933769	527.322856	1297.570815	-418.733917	450.193280	1396.681679	-281.107564	464.180480	1228.408213	-265.208822	540.684367	1079.795435	-11.094675	713.835241	874.359463	-58.247810	553.624617	1037.831810	-546.928696	718.130533	860.899790	-446.992760	-65.527998	1161.570752	-278.242244	102.545179	1159.388993	-451.240815	91.116073	1187.602417	-116.196834	107.365647	1106.887378	-420.706662	120.789507	1140.166875	-147.899019	-39.804914	1208.777881	-230.151797	-40.621659	1201.872541	-335.610371	50.525718	1081.533876	-82.487873	51.921264	1019.040842	-457.615005	164.005315	1002.155728	-65.120342	238.531368	966.194573	-67.909488	316.337304	920.623463	-77.776205	264.290243	1012.970302	-86.762597	392.818196	834.841596	-97.937264	357.745542	721.265474	-66.214621	341.613377	638.066155	-70.468943	316.020312	553.361877	-80.006566	386.495351	628.374401	-109.738052	272.464860	436.512811	-93.353965	309.628210	452.048886	-175.961001	225.396598	402.788148	-148.801332	496.068612	397.561547	-127.557500	392.958601	359.725200	-60.454015	125.871913	916.326253	-464.098924	196.977030	867.046436	-453.108236	228.481472	910.365097	-449.152124	260.840876	812.224356	-437.994852	319.791897	722.412029	-418.032101	234.640186	653.772342	-451.326712	179.081985	587.991933	-443.364759	121.075233	525.877983	-428.788280	220.874085	556.580886	-410.149188	35.039497	435.200283	-412.777777	-21.128034	433.361665	-368.297555	189.000156	249.932926	-373.655417	91.959484	295.729521	-439.376915	-223.453975	893.895836	-250.915974	-12.166985	84.092199	-453.764616	-20.235004	80.766268	-53.829732	
753	3.7650	486.585859	1348.504426	-122.423436	527.874208	1296.741480	-418.098672	450.368454	1396.334579	-280.326540	464.695842	1228.332130	-264.131579	541.226955	1079.429103	-10.563643	713.876030	874.016831	-58.149623	553.958548	1037.877835	-547.761584	718.142301	860.916574	-447.309634	-65.509936	1160.677720	-276.448032	102.313290	1158.533126	-450.020728	91.197085	1185.066038	-114.803695	107.198133	1106.680576	-419.804197	121.068345	1139.010820	-146.562451	-39.473004	1207.525219	-228.277382	-41.020846	1201.447555	-333.493509	51.367148	1078.832914	-81.463087	52.281494	1019.965291	-457.137093	164.071737	997.754805	-64.735413	237.824737	959.854713	-67.777706	314.137770	912.371382	-78.258865	264.532335	1006.068543	-86.492101	389.225168	825.824803	-98.362429	355.238204	712.065358	-66.065342	340.727473	628.479999	-70.152685	316.634369	543.343812	-79.459277	385.794981	619.669987	-109.216391	274.446769	425.322509	-92.846945	312.072868	441.491150	-175.133562	227.609555	392.232756	-148.330770	498.306160	386.384719	-127.595271	395.217165	348.651949	-60.384250	127.964105	918.461184	-464.344664	199.449455	870.156110	-454.083737	230.491052	914.034981	-450.277763	264.258183	816.322783	-439.958543	324.963497	728.142565	-419.362511	238.599176	661.092059	-452.200665	182.031774	596.119708	-444.063205	122.981393	535.155699	-429.042235	223.382302	564.369101	-410.632793	35.379569	446.516784	-412.833744	-21.037150	445.315507	-368.210211	186.925354	259.410840	-373.643248	90.371796	306.287073	-439.310719	-223.421234	893.890232	-250.843657	-12.158314	84.088197	-453.741162	-20.228561	80.735433	-53.836282	
754	3.7700	486.946163	1348.388937	-121.868400	528.408673	1295.866398	-417.349334	450.602843	1396.057010	-279.433309	464.996788	1228.044609	-263.531548	541.704100	1079.030844	-10.017646	713.996490	873.691851	-58.143983	554.316706	1037.775935	-548.433906	718.142712	861.001783	-447.594116	-65.688304	1159.988986	-274.397316	102.207149	1158.098253	-449.109843	91.270492	1182.651429	-113.308198	107.066458	1106.545096	-418.877280	121.507926	1137.616378	-145.567648	-39.098660	1206.320614	-226.098748	-41.375480	1201.067156	-331.228138	52.090743	1076.217193	-80.386662	52.583927	1020.918837	-456.596798	163.894349	993.254343	-64.284665	236.553642	953.515648	-67.747854	311.656343	904.086103	-78.768558	264.489881	999.145881	-86.082011	385.400332	817.038443	-98.803184	352.361262	702.880815	-65.861572	339.189213	619.069293	-69.750817	316.589453	533.493655	-79.045032	384.560423	611.088909	-108.623647	275.669610	414.642826	-92.487892	313.480923	430.352929	-174.902794	229.319621	381.974494	-147.918767	499.990980	375.004837	-127.498142	396.995457	337.483628	-60.319617	130.113291	920.831269	-464.596348	202.394519	873.895104	-455.173959	232.663562	918.355267	-451.095593	268.604659	821.232100	-441.737631	330.605899	734.872811	-420.608425	243.008669	668.584130	-453.154725	185.184562	604.823392	-444.606706	125.212863	544.773392	-429.267176	226.322261	572.398042	-411.387556	36.365815	457.781507	-412.840802	-20.236858	457.420482	-368.189385	185.548599	269.049072	-373.583097	89.499734	317.036077	-439.193721	-223.383054	893.891941	-250.763036	-12.163385	84.099048	-453.767443	-20.235282	80.717364	-53.825746	
